<svg width="512" height="512" viewBox="0 0 512 512" fill="none" xmlns="http://www.w3.org/2000/svg">
<path d="M477.922 119.368H344.768C342.504 119.368 340.333 120.267 338.733 121.868C337.132 123.469 336.233 125.64 336.233 127.903C336.233 130.167 337.132 132.338 338.733 133.938C340.333 135.539 342.504 136.438 344.768 136.438H477.922C482.628 136.438 486.458 140.268 486.458 144.974V187.651H349.465C347.201 187.651 345.031 188.551 343.43 190.151C341.829 191.752 340.93 193.923 340.93 196.186C340.93 198.45 341.829 200.621 343.43 202.222C345.031 203.822 347.201 204.722 349.465 204.722H486.458V486.393C486.458 491.098 482.628 494.928 477.922 494.928H34.0776C29.3725 494.928 25.5425 491.098 25.5425 486.393V204.722H162.535C164.799 204.722 166.97 203.822 168.57 202.222C170.171 200.621 171.07 198.45 171.07 196.186C171.07 193.923 170.171 191.752 168.57 190.151C166.97 188.551 164.799 187.651 162.535 187.651H25.5415V144.974C25.5415 140.268 29.3715 136.438 34.0766 136.438H167.232C169.496 136.438 171.667 135.539 173.267 133.938C174.868 132.338 175.767 130.167 175.767 127.903C175.767 125.64 174.868 123.469 173.267 121.868C171.667 120.267 169.496 119.368 167.232 119.368H34.0776C19.9571 119.368 8.47119 130.854 8.47119 144.975V486.394C8.47119 500.514 19.9571 512 34.0776 512H477.922C492.043 512 503.529 500.514 503.529 486.394V144.975C503.529 130.854 492.043 119.368 477.922 119.368Z" fill="white"/>
<path d="M45.0884 155.985C43.55 157.607 42.6128 159.74 42.6128 162.045C42.6128 164.349 43.55 166.484 45.0884 168.104C46.7098 169.638 48.8434 170.58 51.1479 170.58C53.3655 170.58 55.5871 169.638 57.2075 168.104C58.7409 166.483 59.6831 164.261 59.6831 162.045C59.6831 159.823 58.7409 157.606 57.2075 155.985C53.9617 152.827 48.2432 152.827 45.0884 155.985ZM79.23 155.985C77.6916 157.607 76.7544 159.824 76.7544 162.045C76.7544 164.262 77.6926 166.484 79.23 168.104C80.8514 169.638 83.069 170.58 85.2895 170.58C87.5071 170.58 89.7287 169.638 91.3491 168.104C92.8825 166.483 93.8247 164.261 93.8247 162.045C93.8247 159.823 92.8825 157.606 91.3491 155.985C88.1033 152.827 82.3858 152.827 79.23 155.985ZM113.373 155.985C111.834 157.607 110.897 159.824 110.897 162.045C110.897 164.349 111.834 166.484 113.373 168.017C114.994 169.639 117.128 170.581 119.432 170.581C121.737 170.581 123.871 169.639 125.492 168.105C127.025 166.484 127.967 164.35 127.967 162.046C127.967 159.824 127.025 157.607 125.492 155.986C122.333 152.827 116.527 152.827 113.373 155.985ZM129.602 293.591C128.753 294.759 128.213 296.123 128.034 297.556C127.855 298.989 128.041 300.444 128.576 301.785L145.648 344.463C146.122 345.645 146.855 346.706 147.792 347.569C148.73 348.431 149.848 349.073 151.066 349.447C152.283 349.822 153.569 349.92 154.829 349.733C156.089 349.546 157.291 349.08 158.347 348.368L206.005 316.238C208.362 322.89 210.886 329.481 213.574 336.007C213.579 336.019 213.59 336.027 213.595 336.039C214.025 337.072 214.654 338.011 215.446 338.801C215.814 339.167 216.292 339.367 216.716 339.657C217.199 339.99 217.627 340.397 218.175 340.627C219.208 341.058 220.316 341.281 221.436 341.285C221.447 341.285 221.456 341.291 221.468 341.291H225.119L214.224 363.079C213.574 364.381 213.267 365.827 213.332 367.28C213.398 368.734 213.834 370.146 214.599 371.384C215.364 372.621 216.432 373.643 217.703 374.352C218.973 375.06 220.404 375.432 221.859 375.433H290.143C291.598 375.432 293.029 375.06 294.299 374.352C295.57 373.643 296.638 372.621 297.403 371.384C298.168 370.146 298.604 368.734 298.67 367.28C298.735 365.827 298.428 364.381 297.778 363.079L286.883 341.291H288.009C288.449 341.291 288.828 341.105 289.25 341.04C289.679 341.106 290.103 341.295 290.53 341.295C292.223 341.295 293.877 340.792 295.283 339.85C296.689 338.908 297.784 337.57 298.428 336.006C301.116 329.481 303.64 322.889 305.998 316.238L353.654 348.367C354.71 349.079 355.912 349.545 357.172 349.732C358.432 349.919 359.718 349.821 360.935 349.446C362.153 349.072 363.271 348.43 364.209 347.568C365.146 346.705 365.879 345.644 366.353 344.462L383.425 301.784C383.96 300.443 384.146 298.988 383.967 297.555C383.788 296.122 383.249 294.758 382.399 293.59L330.096 221.686C334.483 187.3 334.209 147.873 322.242 107.402C311.093 69.7256 290.942 34.4967 262.347 2.70068C259.104 -0.900227 252.895 -0.900227 249.652 2.70068C221.049 34.5087 200.898 69.7386 189.758 107.402C177.79 147.873 177.517 187.301 181.904 221.686L129.602 293.591ZM235.669 358.361L244.205 341.29H267.794L276.329 358.361H235.669ZM326.282 245.465L365.819 299.822L354.429 328.3L311.769 299.54C316.602 285.03 322.116 266.615 326.282 245.465ZM206.129 112.245C215.702 79.8741 232.461 49.3544 256 21.4054C279.53 49.3454 296.289 79.8661 305.87 112.245C317.499 151.565 317.499 189.494 312.936 222.569C312.908 222.725 312.893 222.874 312.873 223.031C307.729 259.913 296.92 290.71 289.991 310.299C288.339 314.972 286.597 319.613 284.769 324.22H227.23C225.401 319.612 223.66 314.97 222.008 310.295C215.079 290.708 204.271 259.913 199.126 223.031C199.106 222.874 199.092 222.726 199.064 222.57C194.5 189.494 194.5 151.565 206.129 112.245ZM200.232 299.539L157.571 328.3L146.18 299.822L185.717 245.465C189.884 266.614 195.399 285.03 200.232 299.539ZM247.464 418.109V443.716C247.464 445.979 248.364 448.15 249.964 449.751C251.565 451.352 253.736 452.251 256 452.251C258.263 452.251 260.434 451.352 262.035 449.751C263.635 448.15 264.535 445.979 264.535 443.716V418.109C264.535 415.846 263.635 413.675 262.035 412.074C260.434 410.473 258.263 409.574 256 409.574C253.736 409.574 251.565 410.473 249.964 412.074C248.364 413.675 247.464 415.846 247.464 418.109ZM213.323 401.039V426.645C213.323 428.909 214.222 431.08 215.823 432.681C217.423 434.281 219.594 435.181 221.858 435.181C224.122 435.181 226.293 434.281 227.893 432.681C229.494 431.08 230.393 428.909 230.393 426.645V401.039C230.393 398.775 229.494 396.604 227.893 395.004C226.293 393.403 224.122 392.504 221.858 392.504C219.594 392.504 217.423 393.403 215.823 395.004C214.222 396.604 213.323 398.775 213.323 401.039ZM290.142 392.503C287.878 392.503 285.708 393.402 284.107 395.003C282.506 396.603 281.607 398.774 281.607 401.038V426.644C281.607 428.908 282.506 431.079 284.107 432.68C285.708 434.28 287.878 435.18 290.142 435.18C292.406 435.18 294.577 434.28 296.177 432.68C297.778 431.079 298.677 428.908 298.677 426.644V401.038C298.677 398.774 297.778 396.604 296.177 395.003C294.577 393.402 292.406 392.503 290.142 392.503Z" fill="#F43534"/>
<path d="M256 196.187C279.53 196.187 298.677 177.041 298.677 153.51C298.677 129.979 279.53 110.832 256 110.832C232.469 110.832 213.322 129.979 213.322 153.51C213.323 177.041 232.469 196.187 256 196.187ZM256 127.903C270.12 127.903 281.606 139.389 281.606 153.51C281.606 167.63 270.12 179.116 256 179.116C241.879 179.116 230.393 167.63 230.393 153.51C230.393 139.389 241.88 127.903 256 127.903Z" fill="white"/>
</svg>
