<svg width="512" height="512" viewBox="0 0 512 512" fill="none" xmlns="http://www.w3.org/2000/svg">
<path d="M488 128H24C21.8783 128 19.8434 127.157 18.3431 125.657C16.8429 124.157 16 122.122 16 120V72C16 58.768 26.768 48 40 48H472C485.232 48 496 58.768 496 72V120C496 122.122 495.157 124.157 493.657 125.657C492.157 127.157 490.122 128 488 128ZM32 112H480V72C480 67.6 476.4 64 472 64H40C35.6 64 32 67.6 32 72V112ZM104 224H56C53.8783 224 51.8434 223.157 50.3431 221.657C48.8429 220.157 48 218.122 48 216C48 213.878 48.8429 211.843 50.3431 210.343C51.8434 208.843 53.8783 208 56 208H104C106.122 208 108.157 208.843 109.657 210.343C111.157 211.843 112 213.878 112 216C112 218.122 111.157 220.157 109.657 221.657C108.157 223.157 106.122 224 104 224ZM152 192H56C53.8783 192 51.8434 191.157 50.3431 189.657C48.8429 188.157 48 186.122 48 184C48 181.878 48.8429 179.843 50.3431 178.343C51.8434 176.843 53.8783 176 56 176H152C154.122 176 156.157 176.843 157.657 178.343C159.157 179.843 160 181.878 160 184C160 186.122 159.157 188.157 157.657 189.657C156.157 191.157 154.122 192 152 192Z" fill="white"/>
<path d="M120 96C124.418 96 128 92.4183 128 88C128 83.5817 124.418 80 120 80C115.582 80 112 83.5817 112 88C112 92.4183 115.582 96 120 96Z" fill="white"/>
<path d="M88 96C92.4183 96 96 92.4183 96 88C96 83.5817 92.4183 80 88 80C83.5817 80 80 83.5817 80 88C80 92.4183 83.5817 96 88 96Z" fill="white"/>
<path d="M56 96C60.4183 96 64 92.4183 64 88C64 83.5817 60.4183 80 56 80C51.5817 80 48 83.5817 48 88C48 92.4183 51.5817 96 56 96Z" fill="white"/>
<path d="M472 448H424C421.878 448 419.843 447.157 418.343 445.657C416.843 444.157 416 442.122 416 440C416 437.878 416.843 435.843 418.343 434.343C419.843 432.843 421.878 432 424 432H472C474.122 432 476.157 431.157 477.657 429.657C479.157 428.157 480 426.122 480 424V72C480 69.8783 479.157 67.8434 477.657 66.3431C476.157 64.8429 474.122 64 472 64H40C37.8783 64 35.8434 64.8429 34.3431 66.3431C32.8429 67.8434 32 69.8783 32 72V424C32 426.122 32.8429 428.157 34.3431 429.657C35.8434 431.157 37.8783 432 40 432H216C218.122 432 220.157 432.843 221.657 434.343C223.157 435.843 224 437.878 224 440C224 442.122 223.157 444.157 221.657 445.657C220.157 447.157 218.122 448 216 448H40C26.768 448 16 437.232 16 424V72C16 58.768 26.768 48 40 48H472C485.232 48 496 58.768 496 72V424C496 437.232 485.232 448 472 448Z" fill="white"/>
<path d="M384.336 448.032C383.232 448.036 382.139 447.808 381.128 447.365C380.116 446.921 379.209 446.271 378.464 445.456L358.784 424.112C357.704 422.949 356.997 421.49 356.752 419.922C356.506 418.354 356.735 416.749 357.408 415.312C361.291 407.036 364.144 398.315 365.904 389.344C366.205 387.78 366.966 386.342 368.089 385.214C369.212 384.085 370.646 383.317 372.208 383.008L400 377.44V358.56L372.208 352.992C370.649 352.677 369.218 351.907 368.096 350.78C366.974 349.652 366.211 348.217 365.904 346.656C364.149 337.679 361.296 328.952 357.408 320.672C356.735 319.235 356.506 317.63 356.752 316.062C356.997 314.494 357.704 313.035 358.784 311.872L378.048 290.976L366.96 275.696L341.12 287.584C339.679 288.249 338.073 288.47 336.506 288.219C334.939 287.968 333.482 287.257 332.32 286.176C325.644 279.916 318.229 274.495 310.24 270.032C308.854 269.263 307.728 268.1 307.005 266.689C306.281 265.279 305.993 263.686 306.176 262.112L309.488 233.968L291.52 228.128L277.616 252.896C276.822 254.264 275.648 255.372 274.236 256.085C272.825 256.798 271.236 257.085 269.664 256.912C260.593 255.808 251.423 255.808 242.352 256.912C240.776 257.105 239.177 256.827 237.759 256.112C236.341 255.397 235.166 254.278 234.384 252.896L220.496 228.128L202.528 233.968L205.84 262.112C206.023 263.686 205.735 265.279 205.011 266.689C204.288 268.1 203.162 269.263 201.776 270.032C193.786 274.495 186.372 279.916 179.696 286.176C178.534 287.257 177.077 287.968 175.51 288.219C173.943 288.47 172.337 288.249 170.896 287.584L145.056 275.696L133.968 290.992L153.232 311.888C154.312 313.051 155.019 314.51 155.264 316.078C155.51 317.646 155.281 319.251 154.608 320.688C150.725 328.964 147.872 337.685 146.112 346.656C145.811 348.22 145.05 349.658 143.927 350.786C142.804 351.915 141.37 352.683 139.808 352.992L112 358.56V377.44L139.792 383.008C142.976 383.648 145.456 386.144 146.096 389.344C147.072 394.352 148.432 399.472 150.208 404.528C150.553 405.522 150.698 406.574 150.636 407.624C150.574 408.674 150.306 409.702 149.847 410.648C149.388 411.594 148.747 412.441 147.96 413.14C147.174 413.838 146.258 414.375 145.264 414.72C144.27 415.065 143.218 415.21 142.168 415.148C141.118 415.086 140.09 414.818 139.144 414.359C138.198 413.9 137.351 413.259 136.652 412.472C135.954 411.686 135.417 410.77 135.072 409.776C133.693 405.804 132.507 401.767 131.52 397.68L102.432 391.84C100.619 391.478 98.9877 390.499 97.8151 389.069C96.6425 387.64 96.0011 385.849 96 384V352C96.0011 350.151 96.6425 348.36 97.8151 346.931C98.9877 345.501 100.619 344.522 102.432 344.16L131.52 338.336C133.104 331.776 135.216 325.264 137.888 318.88L117.728 297.024C116.468 295.667 115.72 293.915 115.612 292.066C115.504 290.218 116.043 288.39 117.136 286.896L135.952 260.992C137.038 259.496 138.609 258.423 140.398 257.956C142.186 257.489 144.082 257.657 145.76 258.432L172.784 270.864C177.957 266.399 183.479 262.354 189.296 258.768L185.824 229.312C185.615 227.474 186.047 225.619 187.046 224.063C188.046 222.506 189.553 221.342 191.312 220.768L221.744 210.864C223.505 210.297 225.407 210.355 227.13 211.028C228.853 211.702 230.29 212.949 231.2 214.56L245.712 240.448C252.531 239.856 259.389 239.856 266.208 240.448L280.736 214.56C281.643 212.951 283.077 211.704 284.798 211.03C286.518 210.357 288.418 210.298 290.176 210.864L320.608 220.752C324.24 221.936 326.528 225.504 326.096 229.296L322.624 258.768C328.441 262.354 333.963 266.399 339.136 270.864L366.16 258.432C367.838 257.654 369.734 257.484 371.524 257.951C373.313 258.418 374.884 259.493 375.968 260.992L394.784 286.88C395.877 288.374 396.416 290.202 396.308 292.05C396.2 293.899 395.452 295.651 394.192 297.008L374.032 318.864C376.704 325.232 378.832 331.76 380.4 338.32L409.488 344.144C411.317 344.493 412.967 345.468 414.155 346.902C415.344 348.336 415.996 350.138 416 352V384C415.999 385.849 415.358 387.64 414.185 389.069C413.012 390.499 411.381 391.478 409.568 391.84L380.48 397.664C378.896 404.224 376.784 410.736 374.112 417.12L390.24 434.608C391.295 435.752 391.994 437.18 392.25 438.715C392.507 440.251 392.309 441.828 391.683 443.253C391.056 444.678 390.027 445.889 388.722 446.738C387.417 447.587 385.893 448.037 384.336 448.032ZM256 448C253.878 448 251.843 447.157 250.343 445.657C248.843 444.157 248 442.122 248 440C248 437.878 248.843 435.843 250.343 434.343C251.843 432.843 253.878 432 256 432C291.296 432 320 403.296 320 368C320 332.704 291.296 304 256 304C244.379 304.019 232.982 307.198 223.029 313.198C213.076 319.197 204.943 327.791 199.5 338.059C194.057 348.326 191.51 359.881 192.131 371.486C192.751 383.09 196.517 394.308 203.024 403.936C204.15 405.689 204.547 407.813 204.131 409.855C203.716 411.896 202.52 413.695 200.798 414.869C199.076 416.042 196.964 416.498 194.912 416.138C192.86 415.779 191.028 414.633 189.808 412.944C180.788 399.693 175.975 384.029 176 368C176 323.888 211.888 288 256 288C300.112 288 336 323.888 336 368C336 412.112 300.112 448 256 448Z" fill="#F43534"/>
</svg>
