<svg width="512" height="512" viewBox="0 0 512 512" fill="none" xmlns="http://www.w3.org/2000/svg">
<path d="M440 360.048V328C439.987 317.395 435.769 307.228 428.27 299.73C420.772 292.231 410.605 288.013 400 288H332.656C340.061 274.34 346.034 259.952 350.48 245.064L380.88 220.736C385.605 216.964 389.06 211.832 390.777 206.035C392.494 200.237 392.392 194.053 390.484 188.315C388.576 182.578 384.954 177.564 380.106 173.95C375.259 170.335 369.419 168.295 363.376 168.104L381.2 119.096C385.748 106.589 387.214 93.1699 385.474 79.9758C383.735 66.7817 378.84 54.2013 371.206 43.3006C363.571 32.3999 353.422 23.5 341.617 17.3551C329.812 11.2101 316.7 8.00113 303.392 8H235.472C184.65 7.98733 134.85 22.2699 91.76 49.216C90.4653 50.018 89.4265 51.1728 88.7655 52.5449C88.1045 53.9169 87.8489 55.4491 88.0287 56.9614C88.2085 58.4737 88.8162 59.9032 89.7805 61.082C90.7447 62.2608 92.0254 63.1399 93.472 63.616L112.76 70.016C115.415 70.9016 117.861 72.3202 119.947 74.1849C122.034 76.0495 123.718 78.3209 124.896 80.8596C126.073 83.3983 126.72 86.1508 126.795 88.9483C126.871 91.7458 126.375 94.5293 125.336 97.128C123.419 101.919 122.539 107.061 122.752 112.217C122.966 117.372 124.269 122.424 126.576 127.04L147.2 168.248C141.3 168.718 135.677 170.951 131.063 174.657C126.448 178.363 123.054 183.371 121.322 189.03C119.59 194.69 119.599 200.739 121.35 206.393C123.1 212.047 126.509 217.045 131.136 220.736L161.536 245.064C165.977 259.951 171.945 274.34 179.344 288H112C101.395 288.013 91.2285 292.231 83.7298 299.73C76.2311 307.228 72.0127 317.395 72 328V360.048C53.066 367.958 36.8905 381.284 25.5042 398.355C14.1179 415.426 8.02837 435.48 8 456V496C8 498.122 8.84285 500.157 10.3431 501.657C11.8434 503.157 13.8783 504 16 504H496C498.122 504 500.157 503.157 501.657 501.657C503.157 500.157 504 498.122 504 496V456C503.972 435.48 497.882 415.426 486.496 398.355C475.11 381.284 458.934 367.958 440 360.048ZM320 168H272C269.878 168 267.843 168.843 266.343 170.343C264.843 171.843 264 173.878 264 176V184H248V176C248 173.878 247.157 171.843 245.657 170.343C244.157 168.843 242.122 168 240 168H168V156.28L217.936 122.992C228.682 115.813 241.317 111.988 254.24 112C272.728 111.978 290.663 105.686 305.112 94.152L318.184 83.696L331.904 104.288C339.803 116.108 344.013 130.008 344 144.224V168H320ZM312 184V208C312 210.122 311.157 212.157 309.657 213.657C308.157 215.157 306.122 216 304 216H288C285.878 216 283.843 215.157 282.343 213.657C280.843 212.157 280 210.122 280 208V184H312ZM232 184V208C232 210.122 231.157 212.157 229.657 213.657C228.157 215.157 226.122 216 224 216H208C205.878 216 203.843 215.157 202.343 213.657C200.843 212.157 200 210.122 200 208V184H232ZM376 197.6C376.004 199.641 375.547 201.656 374.663 203.496C373.78 205.336 372.492 206.952 370.896 208.224L356.392 219.824C358.506 207.995 359.67 196.015 359.872 184H362.4C366.007 184 369.466 185.433 372.017 187.983C374.567 190.534 376 193.993 376 197.6ZM140.184 103.072C142.032 98.4498 142.917 93.4987 142.783 88.5224C142.649 83.5462 141.501 78.6497 139.407 74.1333C137.313 69.617 134.319 65.5761 130.607 62.2584C126.896 58.9407 122.546 56.4163 117.824 54.84L115.376 54.04C152.331 34.3102 193.58 23.9926 235.472 24H303.392C314.126 24.002 324.701 26.5905 334.222 31.5462C343.743 36.502 351.929 43.6791 358.088 52.4698C364.247 61.2604 368.197 71.4058 369.603 82.0468C371.01 92.6878 369.832 103.511 366.168 113.6L359.216 132.72C357.478 119.362 352.688 106.584 345.216 95.376L326.656 67.528C326.04 66.6056 325.239 65.8214 324.304 65.225C323.369 64.6287 322.32 64.2333 321.224 64.064C320.128 63.8985 319.011 63.9602 317.94 64.2451C316.869 64.5299 315.868 65.032 315 65.72L295.12 81.664C283.505 90.9256 269.095 95.9789 254.24 96C238.156 95.9854 222.431 100.747 209.056 109.68L155.56 145.344C155.064 145.681 154.608 146.073 154.2 146.512L140.888 119.88C139.591 117.287 138.857 114.448 138.736 111.551C138.615 108.654 139.108 105.765 140.184 103.072ZM141.112 208.24C138.904 206.482 137.297 204.081 136.515 201.369C135.733 198.657 135.814 195.769 136.747 193.105C137.68 190.442 139.418 188.134 141.721 186.502C144.024 184.871 146.778 183.996 149.6 184H152.112C152.313 196.02 153.477 208.005 155.592 219.84L141.112 208.24ZM168.128 184H184V208C184 214.365 186.529 220.47 191.029 224.971C195.53 229.471 201.635 232 208 232H224C230.365 232 236.47 229.471 240.971 224.971C245.471 220.47 248 214.365 248 208V200H264V208C264 214.365 266.529 220.47 271.029 224.971C275.53 229.471 281.635 232 288 232H304C310.365 232 316.47 229.471 320.971 224.971C325.471 220.47 328 214.365 328 208V184H343.872C343.251 220.668 333.014 256.53 314.184 288H197.816C178.986 256.53 168.749 220.668 168.128 184ZM112 304H400C406.365 304 412.47 306.529 416.971 311.029C421.471 315.53 424 321.635 424 328V488H88V328C88 321.635 90.5286 315.53 95.0294 311.029C99.5303 306.529 105.635 304 112 304ZM24 456C24.0217 439.79 28.5139 423.9 36.9825 410.078C45.4511 396.256 57.5678 385.037 72 377.656V488H24V456ZM488 488H440V377.656C454.432 385.038 466.548 396.257 475.016 410.078C483.485 423.9 487.977 439.79 488 456V488Z" fill="white"/>
<path d="M256 464C262.329 464 268.516 462.123 273.778 458.607C279.041 455.091 283.142 450.093 285.564 444.246C287.986 438.399 288.62 431.965 287.385 425.757C286.15 419.55 283.103 413.848 278.627 409.373C274.152 404.897 268.45 401.85 262.243 400.615C256.035 399.38 249.601 400.014 243.754 402.436C237.907 404.858 232.909 408.959 229.393 414.222C225.877 419.484 224 425.671 224 432C224 440.487 227.371 448.626 233.373 454.627C239.374 460.629 247.513 464 256 464ZM256 416C259.165 416 262.258 416.938 264.889 418.696C267.52 420.455 269.571 422.953 270.782 425.877C271.993 428.801 272.31 432.018 271.693 435.121C271.075 438.225 269.551 441.076 267.314 443.314C265.076 445.551 262.225 447.075 259.121 447.693C256.018 448.31 252.801 447.993 249.877 446.782C246.953 445.571 244.455 443.52 242.696 440.889C240.938 438.258 240 435.165 240 432C240 427.757 241.686 423.687 244.686 420.686C247.687 417.686 251.757 416 256 416ZM202.344 389.656L213.656 378.344L187.312 352L213.656 325.656L202.344 314.344L170.344 346.344C168.844 347.844 168.002 349.879 168.002 352C168.002 354.121 168.844 356.156 170.344 357.656L202.344 389.656ZM309.656 389.656L341.656 357.656C343.156 356.156 343.998 354.121 343.998 352C343.998 349.879 343.156 347.844 341.656 346.344L309.656 314.344L298.344 325.656L324.688 352L298.344 378.344L309.656 389.656ZM225.6 379.192L273.6 315.2L286.4 324.8L238.392 388.8L225.6 379.192Z" fill="#F43534"/>
</svg>
