<svg width="512" height="512" viewBox="0 0 512 512" fill="none" xmlns="http://www.w3.org/2000/svg">
<g clip-path="url(#clip0_7_201)">
<path d="M259.537 273.649L199.003 449.555C217.516 455.001 236.713 457.771 256.011 457.78C279.499 457.78 302.042 453.715 323.001 446.34C322.444 445.456 321.965 444.525 321.571 443.557L259.537 273.649ZM54.2304 255.989C54.2304 335.862 100.647 404.88 167.955 437.581L71.7106 173.878C60.1707 199.714 54.2141 227.694 54.2304 255.989Z" fill="white"/>
<path d="M392.204 245.811C392.204 220.876 383.256 203.612 375.579 190.16C365.348 173.54 355.76 159.471 355.76 142.846C355.76 124.299 369.825 107.035 389.644 107.035C390.541 107.035 391.386 107.146 392.262 107.188C356.373 74.3134 308.551 54.2304 256.016 54.2304C185.514 54.2304 123.497 90.3946 87.4327 145.179C91.7587 145.323 96.0866 145.404 100.415 145.422C121.522 145.422 154.197 142.862 154.197 142.862C165.083 142.207 166.35 158.188 155.49 159.471C155.49 159.471 144.556 160.754 132.398 161.398L205.861 379.951L250.013 247.516L218.569 161.392C211.5 160.951 204.446 160.309 197.414 159.465C186.549 158.832 187.816 142.212 198.686 142.856C198.686 142.856 232.015 145.417 251.829 145.417C272.931 145.417 305.616 142.856 305.616 142.856C316.502 142.212 317.775 158.183 306.899 159.465C306.899 159.465 295.955 160.748 283.807 161.392L356.732 378.288L376.857 311.038C385.573 283.131 392.204 263.08 392.204 245.811ZM433.046 159.191C433.912 165.611 434.408 172.522 434.408 179.939C434.408 200.413 430.591 223.431 419.071 252.209L357.434 430.396C417.414 395.414 457.775 330.424 457.775 256C457.829 222.161 449.323 188.858 433.046 159.191Z" fill="white"/>
<path d="M256 0C114.617 0 0.00524902 114.617 0.00524902 256C0.00524902 397.383 114.617 512 256 512C397.383 512 511.995 397.383 511.995 256C511.995 114.617 397.383 0 256 0ZM256.011 480.413C132.26 480.413 31.5974 379.75 31.5974 255.989C31.5974 132.25 132.255 31.5869 256.011 31.5869C379.745 31.5869 480.403 132.255 480.403 255.989C480.408 379.739 379.739 480.413 256.011 480.413Z" fill="#F43534"/>
</g>
<defs>
<clipPath id="clip0_7_201">
<rect width="512" height="512" fill="white"/>
</clipPath>
</defs>
</svg>
