<svg width="512" height="512" viewBox="0 0 512 512" fill="none" xmlns="http://www.w3.org/2000/svg">
<path d="M24 320C21.8783 320 19.8434 319.157 18.3431 317.657C16.8429 316.157 16 314.122 16 312V56C16 42.768 26.768 32 40 32H472C485.232 32 496 42.768 496 56V80C496 82.1217 495.157 84.1566 493.657 85.6569C492.157 87.1571 490.122 88 488 88C485.878 88 483.843 87.1571 482.343 85.6569C480.843 84.1566 480 82.1217 480 80V56C480 51.6 476.4 48 472 48H40C35.6 48 32 51.6 32 56V312C32 314.122 31.1571 316.157 29.6569 317.657C28.1566 319.157 26.1217 320 24 320ZM256 496H168C165.878 496 163.843 495.157 162.343 493.657C160.843 492.157 160 490.122 160 488C160 485.878 160.843 483.843 162.343 482.343C163.843 480.843 165.878 480 168 480H184C197.232 480 208 469.232 208 456V416C208 413.878 208.843 411.843 210.343 410.343C211.843 408.843 213.878 408 216 408C218.122 408 220.157 408.843 221.657 410.343C223.157 411.843 224 413.878 224 416V456C224 465.008 221.008 473.312 215.984 480H256C258.122 480 260.157 480.843 261.657 482.343C263.157 483.843 264 485.878 264 488C264 490.122 263.157 492.157 261.657 493.657C260.157 495.157 258.122 496 256 496Z" fill="#F43534"/>
<path d="M248 416H40C26.768 416 16 405.232 16 392V344C16 341.878 16.8429 339.843 18.3431 338.343C19.8434 336.843 21.8783 336 24 336H248C250.122 336 252.157 336.843 253.657 338.343C255.157 339.843 256 341.878 256 344C256 346.122 255.157 348.157 253.657 349.657C252.157 351.157 250.122 352 248 352H32V392C32 396.4 35.6 400 40 400H248C250.122 400 252.157 400.843 253.657 402.343C255.157 403.843 256 405.878 256 408C256 410.122 255.157 412.157 253.657 413.657C252.157 415.157 250.122 416 248 416ZM456 496H312C301.394 495.992 291.225 491.775 283.725 484.275C276.225 476.775 272.008 466.606 272 456V136C272 113.936 289.936 96 312 96H456C478.064 96 496 113.936 496 136V456C496 478.064 478.064 496 456 496ZM312 112C298.768 112 288 122.768 288 136V456C288 469.232 298.768 480 312 480H456C469.232 480 480 469.232 480 456V136C480 122.768 469.232 112 456 112H312Z" fill="white"/>
<path d="M424 144H344C341.878 144 339.843 143.157 338.343 141.657C336.843 140.157 336 138.122 336 136C336 133.878 336.843 131.843 338.343 130.343C339.843 128.843 341.878 128 344 128H424C426.122 128 428.157 128.843 429.657 130.343C431.157 131.843 432 133.878 432 136C432 138.122 431.157 140.157 429.657 141.657C428.157 143.157 426.122 144 424 144ZM392 464H376C373.878 464 371.843 463.157 370.343 461.657C368.843 460.157 368 458.122 368 456C368 453.878 368.843 451.843 370.343 450.343C371.843 448.843 373.878 448 376 448H392C394.122 448 396.157 448.843 397.657 450.343C399.157 451.843 400 453.878 400 456C400 458.122 399.157 460.157 397.657 461.657C396.157 463.157 394.122 464 392 464Z" fill="#F43534"/>
</svg>
