<svg width="512" height="512" viewBox="0 0 512 512" fill="none" xmlns="http://www.w3.org/2000/svg">
<path d="M357.76 218.84C367.456 216.249 376.167 210.842 382.791 203.302C389.415 195.761 393.655 186.427 394.975 176.477C396.296 166.528 394.637 156.411 390.208 147.404C385.78 138.397 378.781 130.905 370.096 125.875C361.411 120.845 351.429 118.503 341.413 119.144C331.397 119.785 321.796 123.382 313.823 129.478C305.85 135.575 299.864 143.898 296.62 153.396C293.377 162.894 293.022 173.14 295.6 182.84C297.309 189.29 300.274 195.34 304.325 200.642C308.377 205.945 313.434 210.396 319.209 213.74C324.983 217.084 331.361 219.256 337.976 220.131C344.592 221.007 351.315 220.568 357.76 218.84ZM335.64 136.2C342.28 134.426 349.297 134.661 355.803 136.874C362.31 139.087 368.015 143.18 372.196 148.634C376.378 154.089 378.848 160.66 379.296 167.518C379.744 174.377 378.148 181.214 374.711 187.165C371.275 193.117 366.15 197.916 359.987 200.957C353.823 203.997 346.896 205.142 340.082 204.247C333.268 203.351 326.872 200.456 321.703 195.927C316.533 191.398 312.823 185.438 311.04 178.8C308.668 169.889 309.926 160.402 314.537 152.417C319.148 144.431 326.737 138.6 335.64 136.2Z" fill="white"/>
<path d="M220.32 176.36C219.06 177.166 218.051 178.309 217.407 179.659C216.764 181.01 216.512 182.514 216.68 184C218.139 196.937 221.523 209.583 226.72 221.52C227.325 222.889 228.302 224.06 229.539 224.902C230.776 225.743 232.225 226.221 233.72 226.28L260.72 227.48C266.699 235.564 273.674 242.862 281.48 249.2C282.291 249.872 283.227 250.378 284.234 250.688C285.241 250.998 286.299 251.106 287.347 251.006C288.396 250.906 289.415 250.599 290.345 250.104C291.275 249.61 292.098 248.936 292.767 248.122C293.436 247.308 293.938 246.37 294.243 245.362C294.549 244.354 294.652 243.295 294.547 242.247C294.443 241.199 294.132 240.181 293.633 239.254C293.134 238.326 292.457 237.505 291.64 236.84C284.019 230.758 277.393 223.524 272 215.4C271.312 214.31 270.371 213.403 269.256 212.755C268.142 212.108 266.888 211.739 265.6 211.68L239.64 210.52C236.707 202.97 234.601 195.124 233.36 187.12L255.24 173.12C256.335 172.428 257.246 171.48 257.894 170.359C258.542 169.237 258.908 167.974 258.96 166.68C259.442 153.745 262.833 141.085 268.88 129.64C269.483 128.493 269.798 127.216 269.798 125.92C269.798 124.624 269.483 123.347 268.88 122.2L256.88 99.16C261.974 92.8464 267.726 87.0938 274.04 82L297.12 94C298.262 94.5959 299.532 94.907 300.82 94.907C302.108 94.907 303.378 94.5959 304.52 94C315.929 87.9239 328.564 84.5054 341.48 84C342.785 83.9649 344.061 83.6112 345.197 82.9698C346.334 82.3284 347.296 81.4187 348 80.32L362 58.4C370.02 59.6483 377.88 61.7675 385.44 64.72L386.6 90.68C386.659 91.9675 387.028 93.2218 387.675 94.3362C388.323 95.4505 389.23 96.3918 390.32 97.08C401.228 103.925 410.467 113.123 417.36 124C418.037 125.175 419.002 126.158 420.163 126.858C421.325 127.558 422.645 127.951 424 128L449.96 129.16C452.785 136.7 454.81 144.516 456 152.48L434.08 166.48C432.992 167.177 432.089 168.126 431.449 169.248C430.808 170.369 430.448 171.629 430.4 172.92C429.885 185.855 426.482 198.511 420.44 209.96C419.844 211.102 419.533 212.372 419.533 213.66C419.533 214.948 419.844 216.218 420.44 217.36L432.44 240.44C427.371 246.763 421.631 252.516 415.32 257.6L398.56 248.92C397.625 248.366 396.587 248.008 395.51 247.868C394.432 247.728 393.337 247.809 392.292 248.107C391.247 248.404 390.273 248.911 389.43 249.597C388.588 250.283 387.893 251.133 387.39 252.096C386.887 253.059 386.585 254.115 386.503 255.198C386.421 256.282 386.561 257.371 386.914 258.399C387.266 259.426 387.825 260.372 388.555 261.176C389.285 261.981 390.171 262.629 391.16 263.08L412.44 274.16C413.766 274.853 415.26 275.161 416.752 275.048C418.244 274.935 419.674 274.405 420.88 273.52C428.067 268.199 434.676 262.139 440.6 255.44C448.24 268.64 458.2 286.16 453.04 300.92C429.56 368.44 418.88 399.52 422.08 424.92C418.92 428.92 409.04 438.2 385.28 441.96C353.28 443.48 337.04 432.36 330.76 426.2C334.431 420.222 335.849 413.13 334.76 406.2C333.48 399.12 319.48 383.32 327.6 365.44C344 329.92 340.24 304 328 268C323.16 254.04 323.32 252.52 326.28 250.04C334.28 243.56 349.16 255.64 355.04 265.24C364.28 280.36 366.24 315.36 378.4 329.92C392.44 346.72 407 349.92 408.64 350.2C410.725 350.608 412.886 350.172 414.649 348.987C416.412 347.802 417.632 345.965 418.04 343.88C418.449 341.795 418.012 339.634 416.827 337.871C415.642 336.108 413.805 334.888 411.72 334.48C408.287 333.548 405.04 332.032 402.12 330C410.755 324.891 418.452 318.344 424.88 310.64C426.206 308.932 426.799 306.767 426.529 304.622C426.259 302.476 425.148 300.526 423.44 299.2C421.732 297.874 419.567 297.281 417.422 297.551C415.276 297.821 413.326 298.932 412 300.64C405.728 307.917 398.16 313.966 389.68 318.48C381.68 306.48 378.6 273.48 368.4 256.8C356.88 237.8 332.24 224 316 237.64C304 247.6 308 259.44 312.84 273.12C324.04 305.48 327.72 327.48 313.4 358.92C304.12 379.32 313.4 397.76 318 406.64C318.52 407.68 319.16 408.92 319.44 409.52C319.534 411.671 319.176 413.818 318.391 415.822C317.606 417.827 316.41 419.645 314.88 421.16C313.706 422.435 312.978 424.056 312.805 425.78C312.632 427.504 313.023 429.237 313.92 430.72C327.8 453.56 369.16 460.84 387.48 457.92C426.56 451.88 436.84 432.48 437.88 430.28C438.641 428.629 438.838 426.774 438.44 425C433.72 404.2 448.8 362.12 468.32 306.16C476.84 281.8 460.96 260.28 449.16 237.56L436.72 213.56C442.09 202.244 445.356 190.045 446.36 177.56L469.08 163.04C470.348 162.239 471.365 161.099 472.016 159.748C472.666 158.397 472.924 156.89 472.76 155.4C471.292 142.46 467.895 129.813 462.68 117.88C462.078 116.517 461.108 115.35 459.878 114.509C458.648 113.668 457.208 113.187 455.72 113.12L428.76 111.92C421.661 101.654 412.756 92.7635 402.48 85.68L401.28 58.72C401.153 57.2517 400.622 55.8471 399.747 54.6613C398.871 53.4755 397.686 52.5545 396.32 52C384.395 46.7617 371.745 43.363 358.8 41.92C357.31 41.7558 355.803 42.0138 354.452 42.6644C353.102 43.3151 351.961 44.3323 351.16 45.6L336.64 68.36C324.151 69.3117 311.945 72.5665 300.64 77.96L276.64 65.52C275.314 64.8268 273.82 64.5192 272.329 64.6324C270.837 64.7455 269.406 65.2748 268.2 66.16C257.692 73.8801 248.425 83.1605 240.72 93.68C239.835 94.8862 239.306 96.3165 239.192 97.8084C239.079 99.3003 239.387 100.794 240.08 102.12L252.52 126.12C247.15 137.436 243.884 149.635 242.88 162.12L220.32 176.36ZM154.44 297.8C144.748 300.398 136.043 305.81 129.425 313.353C122.807 320.896 118.573 330.231 117.258 340.179C115.944 350.127 117.607 360.241 122.038 369.244C126.469 378.247 133.469 385.735 142.154 390.762C150.839 395.788 160.818 398.128 170.832 397.485C180.846 396.843 190.445 393.246 198.416 387.151C206.386 381.055 212.372 372.734 215.616 363.238C218.859 353.742 219.216 343.498 216.64 333.8C214.922 327.351 211.95 321.304 207.893 316.004C203.837 310.704 198.776 306.255 193 302.912C187.223 299.568 180.845 297.396 174.228 296.519C167.612 295.642 160.888 296.077 154.44 297.8ZM176.6 380.44C169.952 382.232 162.922 382.011 156.399 379.806C149.876 377.601 144.154 373.511 139.957 368.053C135.76 362.595 133.276 356.014 132.82 349.144C132.364 342.274 133.956 335.423 137.395 329.458C140.834 323.493 145.965 318.682 152.139 315.634C158.313 312.586 165.253 311.439 172.079 312.336C178.906 313.233 185.313 316.136 190.49 320.676C195.666 325.215 199.38 331.189 201.16 337.84C203.533 346.745 202.281 356.228 197.678 364.212C193.075 372.196 185.496 378.031 176.6 380.44Z" fill="white"/>
<path d="M43.2801 340.32L66.0401 354.84C67.0144 367.33 70.2823 379.534 75.6801 390.84L63.2001 414.84C62.5125 416.17 62.2117 417.665 62.332 419.157C62.4522 420.649 62.9885 422.078 63.8801 423.28C71.5983 433.765 80.8639 443.017 91.3601 450.72C92.5624 451.612 93.9908 452.148 95.4828 452.268C96.9748 452.388 98.4706 452.088 99.8001 451.4L123.8 438.92C135.108 444.313 147.311 447.58 159.8 448.56L174.32 471.32C175.043 472.447 176.037 473.374 177.211 474.017C178.385 474.66 179.702 474.998 181.04 475C194.296 473.713 207.261 470.309 219.44 464.92C220.816 464.321 221.996 463.347 222.845 462.109C223.694 460.871 224.177 459.42 224.24 457.92L225.44 430.96C235.706 423.861 244.597 414.956 251.68 404.68L278.64 403.48C280.128 403.413 281.568 402.932 282.798 402.091C284.028 401.25 284.998 400.083 285.6 398.72C290.854 386.787 294.253 374.12 295.68 361.16C295.876 359.644 295.633 358.104 294.981 356.722C294.329 355.339 293.295 354.173 292 353.36L269.24 338.84C268.284 326.351 265.029 314.147 259.64 302.84L272.08 278.84C272.765 277.519 273.068 276.033 272.955 274.549C272.842 273.065 272.318 271.642 271.44 270.44C263.721 260.004 254.47 250.794 244 243.12C242.794 242.235 241.364 241.706 239.872 241.592C238.38 241.479 236.886 241.787 235.56 242.48L227.56 246.48C225.737 247.489 224.379 249.17 223.776 251.165C223.173 253.159 223.372 255.311 224.331 257.161C225.29 259.011 226.933 260.414 228.911 261.071C230.888 261.729 233.044 261.588 234.92 260.68L238.44 258.84C244.684 263.945 250.369 269.697 255.4 276L243.4 299.08C242.797 300.227 242.483 301.504 242.483 302.8C242.483 304.096 242.797 305.373 243.4 306.52C249.48 317.937 252.873 330.592 253.32 343.52C253.366 344.821 253.729 346.092 254.377 347.221C255.025 348.35 255.94 349.304 257.04 350L279 364C277.743 372.018 275.624 379.877 272.68 387.44L246.72 388.6C245.433 388.659 244.178 389.028 243.064 389.675C241.95 390.323 241.008 391.23 240.32 392.32C233.436 403.296 224.166 412.58 213.2 419.48C212.11 420.168 211.203 421.11 210.555 422.224C209.908 423.338 209.539 424.592 209.48 425.88L208.32 452C200.754 454.925 192.895 457.031 184.88 458.28L170.92 436.4C170.223 435.312 169.274 434.409 168.152 433.769C167.031 433.128 165.771 432.768 164.48 432.72C151.544 432.21 138.887 428.807 127.44 422.76C126.293 422.157 125.016 421.843 123.72 421.843C122.424 421.843 121.147 422.157 120 422.76L96.9601 434.76C90.6149 429.688 84.8468 423.933 79.7601 417.6L91.7601 394.52C92.356 393.378 92.6672 392.108 92.6672 390.82C92.6672 389.532 92.356 388.262 91.7601 387.12C85.6924 375.683 82.3005 363.018 81.8401 350.08C81.7922 348.789 81.4324 347.529 80.7916 346.408C80.1507 345.286 79.2478 344.337 78.1601 343.64L56.2401 329.64C57.4938 321.626 59.5991 313.768 62.5201 306.2L88.4801 305.04C89.7745 304.988 91.0369 304.622 92.1587 303.974C93.2804 303.326 94.2281 302.415 94.9201 301.32C101.779 290.348 111.038 281.075 122 274.2C123.095 273.508 124.006 272.56 124.654 271.439C125.302 270.317 125.668 269.054 125.72 267.76L127.12 236.72C127.168 235.669 127.009 234.619 126.651 233.63C126.293 232.641 125.744 231.732 125.034 230.955C124.324 230.179 123.469 229.55 122.516 229.105C121.563 228.659 120.531 228.406 119.48 228.36C118.426 228.306 117.372 228.462 116.378 228.817C115.384 229.173 114.47 229.721 113.69 230.431C112.909 231.142 112.276 231.999 111.828 232.955C111.381 233.911 111.126 234.946 111.08 236L109.88 262.96C103.805 267.189 98.2113 272.072 93.2001 277.52C73.7601 246.4 67.0001 238.76 63.7201 228.72C60.8097 222.115 60.5236 214.649 62.9201 207.84C85.9201 142.04 97.1201 109.56 93.8801 83.84C97.0801 79.84 106.92 70.56 130.68 66.8C163 65.28 178.92 76.4 185.2 82.56C181.53 88.5384 180.111 95.6298 181.2 102.56C182.52 109.68 196.48 125.44 188.36 143.32C172 178.76 175.72 204.84 188 240.8C192.84 254.76 192.68 256.28 189.72 258.76C182.4 264.88 167.56 254.36 160.96 243.56C151.8 228.52 149.76 193.44 137.6 178.88C123.56 162.08 109 158.88 107.36 158.6C105.299 158.223 103.172 158.67 101.437 159.844C99.7017 161.018 98.4964 162.827 98.0801 164.88C97.8698 165.91 97.8643 166.971 98.0641 168.002C98.2639 169.034 98.665 170.016 99.2445 170.893C99.8239 171.769 100.57 172.523 101.441 173.111C102.312 173.699 103.29 174.11 104.32 174.32C107.736 175.265 110.968 176.78 113.88 178.8C105.241 183.887 97.5535 190.438 91.1601 198.16C89.8552 199.863 89.2802 202.014 89.5615 204.141C89.8428 206.267 90.9574 208.195 92.6601 209.5C94.3628 210.805 96.5141 211.38 98.6408 211.099C100.767 210.817 102.695 209.703 104 208C110.213 200.689 117.778 194.645 126.28 190.2C134.44 202 137.28 235.16 147.48 252C159 270.88 183.68 284.88 200.12 271.2C212.12 261.2 208.12 249.36 203.28 235.68C192 203.2 188.4 181.2 202.72 149.76C212 129.36 202.72 110.92 198.12 102.04C197.6 101 196.96 99.76 196.72 99.16C196.606 97.0104 196.95 94.8611 197.73 92.8544C198.509 90.8478 199.705 89.0295 201.24 87.52C202.414 86.2454 203.142 84.6242 203.315 82.9002C203.488 81.1762 203.097 79.4425 202.2 77.96C201.44 76.76 183.32 48 129.48 50.68H128.64C89.5601 56.72 79.2801 76.12 78.2401 78.32C77.4789 79.9708 77.2821 81.8263 77.6801 83.6C82.4801 104.76 66.3201 149.36 47.8001 202.44C44.2401 212.555 44.4962 223.621 48.5201 233.56C52.8801 246.84 64.5201 261 81.6801 289.2L56.6801 290.28C55.1875 290.35 53.7443 290.837 52.5142 291.685C51.2841 292.534 50.3162 293.71 49.7201 295.08C44.4771 307.003 41.0782 319.655 39.6401 332.6C39.4562 334.099 39.7004 335.62 40.3446 336.986C40.9887 338.352 42.0065 339.508 43.2801 340.32Z" fill="#F43534"/>
</svg>
